<svg xmlns="http://www.w3.org/2000/svg" xmlns:xlink="http://www.w3.org/1999/xlink" width="500" zoomAndPan="magnify" viewBox="0 0 375 374.999991" height="500" preserveAspectRatio="xMidYMid meet" version="1.0"><defs><clipPath id="63cd40b048"><path d="M 112.5 112.5 L 262.5 112.5 L 262.5 262.5 L 112.5 262.5 Z M 112.5 112.5 " clip-rule="nonzero"/></clipPath></defs><rect x="-37.5" width="450" fill="#ffffff" y="-37.499999" height="449.999989" fill-opacity="1"/><rect x="-37.5" width="450" fill="#ffffff" y="-37.499999" height="449.999989" fill-opacity="1"/><rect x="-37.5" width="450" fill="#ffffff" y="-37.499999" height="449.999989" fill-opacity="1"/><g clip-path="url(#63cd40b048)"><path fill="#4b5436" d="M 213.097656 187.613281 C 213.097656 189.34375 212.410156 191 211.1875 192.222656 L 181.214844 222.199219 C 179.941406 223.46875 178.273438 224.105469 176.605469 224.105469 C 174.9375 224.105469 173.269531 223.46875 171.996094 222.199219 C 169.453125 219.652344 169.453125 215.527344 171.996094 212.980469 L 197.457031 187.519531 L 171.996094 162.058594 C 169.453125 159.515625 169.453125 155.386719 171.996094 152.84375 C 174.542969 150.296875 178.667969 150.296875 181.214844 152.84375 L 211.1875 182.816406 C 212.410156 184.039062 213.097656 185.695312 213.097656 187.425781 Z M 187.519531 112.511719 C 146.09375 112.511719 112.511719 146.09375 112.511719 187.519531 C 112.511719 228.945312 146.09375 262.527344 187.519531 262.527344 C 228.945312 262.527344 262.527344 228.945312 262.527344 187.519531 C 262.527344 146.09375 228.945312 112.511719 187.519531 112.511719 " fill-opacity="1" fill-rule="nonzero"/></g></svg>